<?xml version="1.0" encoding="UTF-8" standalone="no"?>
<svg
   xmlns:dc="http://purl.org/dc/elements/1.1/"
   xmlns:cc="http://creativecommons.org/ns#"
   xmlns:rdf="http://www.w3.org/1999/02/22-rdf-syntax-ns#"
   xmlns:svg="http://www.w3.org/2000/svg"
   xmlns="http://www.w3.org/2000/svg"
   xmlns:xlink="http://www.w3.org/1999/xlink"
   width="195.24928"
   height="195.24928"
   viewBox="0 0 183.04621 183.04621"
   id="svg4398"
   version="1.1">
  <defs
     id="defs4400">
    <linearGradient
       id="SVGID_1_"
       gradientUnits="userSpaceOnUse"
       x1="-6873.6479"
       y1="2774.2998"
       x2="-6636.2373"
       y2="2496.6895"
       gradientTransform="matrix(0.4345,-0.9318,-0.9318,-0.4345,6223.4761,-5052.7427)">
      <stop
         offset="0"
         style="stop-color:#F59723"
         id="stop3172" />
      <stop
         offset="0.3123"
         style="stop-color:#F69822"
         id="stop3174" />
      <stop
         offset="0.8383"
         style="stop-color:#E87726"
         id="stop3176" />
    </linearGradient>
    <linearGradient
       id="SVGID_2_"
       gradientUnits="userSpaceOnUse"
       x1="-8630.7197"
       y1="2804.9607"
       x2="-6936.9253"
       y2="2804.9607"
       gradientTransform="matrix(0.4345,-0.9318,-0.9318,-0.4345,6223.4761,-5052.7427)">
      <stop
         offset="0.3233"
         style="stop-color:#9C2063"
         id="stop3197" />
      <stop
         offset="0.6302"
         style="stop-color:#C82037"
         id="stop3199" />
      <stop
         offset="0.7514"
         style="stop-color:#CC2135"
         id="stop3201" />
      <stop
         offset="1"
         style="stop-color:#E87726"
         id="stop3203" />
    </linearGradient>
    <linearGradient
       id="SVGID_3_"
       gradientUnits="userSpaceOnUse"
       x1="-8426.2559"
       y1="2635.2839"
       x2="-7416.9194"
       y2="2635.2839"
       gradientTransform="matrix(0.4345,-0.9318,-0.9318,-0.4345,6223.4761,-5052.7427)">
      <stop
         offset="0"
         style="stop-color:#282661"
         id="stop3208" />
      <stop
         offset="9.548389e-02"
         style="stop-color:#662E8C"
         id="stop3210" />
      <stop
         offset="0.7882"
         style="stop-color:#9E2064"
         id="stop3212" />
      <stop
         offset="0.9487"
         style="stop-color:#CC2032"
         id="stop3214" />
    </linearGradient>
    <linearGradient
       id="SVGID_4_"
       gradientUnits="userSpaceOnUse"
       x1="-8535.5879"
       y1="2820.8604"
       x2="-6841.793"
       y2="2820.8604"
       gradientTransform="matrix(0.4345,-0.9318,-0.9318,-0.4345,6223.4761,-5052.7427)">
      <stop
         offset="0.3233"
         style="stop-color:#9C2063"
         id="stop3219" />
      <stop
         offset="0.6302"
         style="stop-color:#C82037"
         id="stop3221" />
      <stop
         offset="0.7514"
         style="stop-color:#CC2135"
         id="stop3223" />
      <stop
         offset="1"
         style="stop-color:#E87726"
         id="stop3225" />
    </linearGradient>
    <linearGradient
       id="SVGID_5_"
       gradientUnits="userSpaceOnUse"
       x1="-8412.0576"
       y1="2797.8789"
       x2="-7521.9175"
       y2="2797.8789"
       gradientTransform="matrix(0.4345,-0.9318,-0.9318,-0.4345,6223.4761,-5052.7427)">
      <stop
         offset="0"
         style="stop-color:#282661"
         id="stop3230" />
      <stop
         offset="9.548389e-02"
         style="stop-color:#662E8C"
         id="stop3232" />
      <stop
         offset="0.7882"
         style="stop-color:#9E2064"
         id="stop3234" />
      <stop
         offset="0.9487"
         style="stop-color:#CC2032"
         id="stop3236" />
    </linearGradient>
    <linearGradient
       id="SVGID_6_"
       gradientUnits="userSpaceOnUse"
       x1="-8535.5879"
       y1="2645.4897"
       x2="-6841.793"
       y2="2645.4897"
       gradientTransform="matrix(0.4345,-0.9318,-0.9318,-0.4345,6223.4761,-5052.7427)">
      <stop
         offset="0.3233"
         style="stop-color:#9C2063"
         id="stop3241" />
      <stop
         offset="0.6302"
         style="stop-color:#C82037"
         id="stop3243" />
      <stop
         offset="0.7514"
         style="stop-color:#CC2135"
         id="stop3245" />
      <stop
         offset="1"
         style="stop-color:#E87726"
         id="stop3247" />
    </linearGradient>
    <linearGradient
       id="SVGID_7_"
       gradientUnits="userSpaceOnUse"
       x1="-8640.6592"
       y1="2654.2649"
       x2="-6946.8647"
       y2="2654.2649"
       gradientTransform="matrix(0.4345,-0.9318,-0.9318,-0.4345,6223.4761,-5052.7427)">
      <stop
         offset="0.3233"
         style="stop-color:#9C2063"
         id="stop3252" />
      <stop
         offset="0.6302"
         style="stop-color:#C82037"
         id="stop3254" />
      <stop
         offset="0.7514"
         style="stop-color:#CC2135"
         id="stop3256" />
      <stop
         offset="1"
         style="stop-color:#E87726"
         id="stop3258" />
    </linearGradient>
    <linearGradient
       id="SVGID_8_"
       gradientUnits="userSpaceOnUse"
       x1="-8535.5889"
       y1="2593.446"
       x2="-6841.7925"
       y2="2593.446"
       gradientTransform="matrix(0.4345,-0.9318,-0.9318,-0.4345,6223.4761,-5052.7427)">
      <stop
         offset="0.3233"
         style="stop-color:#9C2063"
         id="stop3267" />
      <stop
         offset="0.6302"
         style="stop-color:#C82037"
         id="stop3269" />
      <stop
         offset="0.7514"
         style="stop-color:#CC2135"
         id="stop3271" />
      <stop
         offset="1"
         style="stop-color:#E87726"
         id="stop3273" />
    </linearGradient>
    <linearGradient
       id="SVGID_9_"
       gradientUnits="userSpaceOnUse"
       x1="-8535.5889"
       y1="2599.3242"
       x2="-6841.7925"
       y2="2599.3242"
       gradientTransform="matrix(0.4345,-0.9318,-0.9318,-0.4345,6223.4761,-5052.7427)">
      <stop
         offset="0.3233"
         style="stop-color:#9C2063"
         id="stop3282" />
      <stop
         offset="0.6302"
         style="stop-color:#C82037"
         id="stop3284" />
      <stop
         offset="0.7514"
         style="stop-color:#CC2135"
         id="stop3286" />
      <stop
         offset="1"
         style="stop-color:#E87726"
         id="stop3288" />
    </linearGradient>
    <linearGradient
       id="SVGID_10_"
       gradientUnits="userSpaceOnUse"
       x1="-7584.0386"
       y1="2600.5515"
       x2="-7209.6543"
       y2="2600.5515"
       gradientTransform="matrix(0.4345,-0.9318,-0.9318,-0.4345,6223.4761,-5052.7427)">
      <stop
         offset="0.3233"
         style="stop-color:#9C2063"
         id="stop3297" />
      <stop
         offset="0.6302"
         style="stop-color:#C82037"
         id="stop3299" />
      <stop
         offset="0.7514"
         style="stop-color:#CC2135"
         id="stop3301" />
      <stop
         offset="1"
         style="stop-color:#E87726"
         id="stop3303" />
    </linearGradient>
    <linearGradient
       y2="2496.6895"
       x2="-6636.2373"
       y1="2774.2998"
       x1="-6873.6479"
       gradientTransform="matrix(0.4345,-0.9318,-0.9318,-0.4345,6223.4761,-5052.7427)"
       gradientUnits="userSpaceOnUse"
       id="linearGradient2110"
       xlink:href="#SVGID_1_" />
    <linearGradient
       y2="2804.9607"
       x2="-6936.9253"
       y1="2804.9607"
       x1="-8630.7197"
       gradientTransform="matrix(0.4345,-0.9318,-0.9318,-0.4345,6223.4761,-5052.7427)"
       gradientUnits="userSpaceOnUse"
       id="linearGradient2112"
       xlink:href="#SVGID_2_" />
    <linearGradient
       y2="2635.2839"
       x2="-7416.9194"
       y1="2635.2839"
       x1="-8426.2559"
       gradientTransform="matrix(0.4345,-0.9318,-0.9318,-0.4345,6223.4761,-5052.7427)"
       gradientUnits="userSpaceOnUse"
       id="linearGradient2114"
       xlink:href="#SVGID_3_" />
    <linearGradient
       y2="2820.8604"
       x2="-6841.793"
       y1="2820.8604"
       x1="-8535.5879"
       gradientTransform="matrix(0.4345,-0.9318,-0.9318,-0.4345,6223.4761,-5052.7427)"
       gradientUnits="userSpaceOnUse"
       id="linearGradient2116"
       xlink:href="#SVGID_4_" />
    <linearGradient
       y2="2797.8789"
       x2="-7521.9175"
       y1="2797.8789"
       x1="-8412.0576"
       gradientTransform="matrix(0.4345,-0.9318,-0.9318,-0.4345,6223.4761,-5052.7427)"
       gradientUnits="userSpaceOnUse"
       id="linearGradient2118"
       xlink:href="#SVGID_5_" />
    <linearGradient
       y2="2645.4897"
       x2="-6841.793"
       y1="2645.4897"
       x1="-8535.5879"
       gradientTransform="matrix(0.4345,-0.9318,-0.9318,-0.4345,6223.4761,-5052.7427)"
       gradientUnits="userSpaceOnUse"
       id="linearGradient2120"
       xlink:href="#SVGID_6_" />
    <linearGradient
       y2="2654.2649"
       x2="-6946.8647"
       y1="2654.2649"
       x1="-8640.6592"
       gradientTransform="matrix(0.4345,-0.9318,-0.9318,-0.4345,6223.4761,-5052.7427)"
       gradientUnits="userSpaceOnUse"
       id="linearGradient2122"
       xlink:href="#SVGID_7_" />
    <linearGradient
       y2="2593.446"
       x2="-6841.7925"
       y1="2593.446"
       x1="-8535.5889"
       gradientTransform="matrix(0.4345,-0.9318,-0.9318,-0.4345,6223.4761,-5052.7427)"
       gradientUnits="userSpaceOnUse"
       id="linearGradient2124"
       xlink:href="#SVGID_8_" />
    <linearGradient
       y2="2599.3242"
       x2="-6841.7925"
       y1="2599.3242"
       x1="-8535.5889"
       gradientTransform="matrix(0.4345,-0.9318,-0.9318,-0.4345,6223.4761,-5052.7427)"
       gradientUnits="userSpaceOnUse"
       id="linearGradient2126"
       xlink:href="#SVGID_9_" />
    <linearGradient
       y2="2600.5515"
       x2="-7209.6543"
       y1="2600.5515"
       x1="-7584.0386"
       gradientTransform="matrix(0.4345,-0.9318,-0.9318,-0.4345,6223.4761,-5052.7427)"
       gradientUnits="userSpaceOnUse"
       id="linearGradient2128"
       xlink:href="#SVGID_10_" />
    <linearGradient
       y2="2496.6895"
       x2="-6636.2373"
       y1="2774.2998"
       x1="-6873.6479"
       gradientTransform="matrix(0.4345,-0.9318,-0.9318,-0.4345,6223.4761,-5052.7427)"
       gradientUnits="userSpaceOnUse"
       id="linearGradient2130"
       xlink:href="#SVGID_1_" />
    <linearGradient
       y2="2804.9607"
       x2="-6936.9253"
       y1="2804.9607"
       x1="-8630.7197"
       gradientTransform="matrix(0.4345,-0.9318,-0.9318,-0.4345,6223.4761,-5052.7427)"
       gradientUnits="userSpaceOnUse"
       id="linearGradient2132"
       xlink:href="#SVGID_2_" />
    <linearGradient
       y2="2635.2839"
       x2="-7416.9194"
       y1="2635.2839"
       x1="-8426.2559"
       gradientTransform="matrix(0.4345,-0.9318,-0.9318,-0.4345,6223.4761,-5052.7427)"
       gradientUnits="userSpaceOnUse"
       id="linearGradient2134"
       xlink:href="#SVGID_3_" />
    <linearGradient
       y2="2820.8604"
       x2="-6841.793"
       y1="2820.8604"
       x1="-8535.5879"
       gradientTransform="matrix(0.4345,-0.9318,-0.9318,-0.4345,6223.4761,-5052.7427)"
       gradientUnits="userSpaceOnUse"
       id="linearGradient2136"
       xlink:href="#SVGID_4_" />
    <linearGradient
       y2="2797.8789"
       x2="-7521.9175"
       y1="2797.8789"
       x1="-8412.0576"
       gradientTransform="matrix(0.4345,-0.9318,-0.9318,-0.4345,6223.4761,-5052.7427)"
       gradientUnits="userSpaceOnUse"
       id="linearGradient2138"
       xlink:href="#SVGID_5_" />
    <linearGradient
       y2="2645.4897"
       x2="-6841.793"
       y1="2645.4897"
       x1="-8535.5879"
       gradientTransform="matrix(0.4345,-0.9318,-0.9318,-0.4345,6223.4761,-5052.7427)"
       gradientUnits="userSpaceOnUse"
       id="linearGradient2140"
       xlink:href="#SVGID_6_" />
    <linearGradient
       y2="2654.2649"
       x2="-6946.8647"
       y1="2654.2649"
       x1="-8640.6592"
       gradientTransform="matrix(0.4345,-0.9318,-0.9318,-0.4345,6223.4761,-5052.7427)"
       gradientUnits="userSpaceOnUse"
       id="linearGradient2142"
       xlink:href="#SVGID_7_" />
    <linearGradient
       y2="2593.446"
       x2="-6841.7925"
       y1="2593.446"
       x1="-8535.5889"
       gradientTransform="matrix(0.4345,-0.9318,-0.9318,-0.4345,6223.4761,-5052.7427)"
       gradientUnits="userSpaceOnUse"
       id="linearGradient2144"
       xlink:href="#SVGID_8_" />
    <linearGradient
       y2="2599.3242"
       x2="-6841.7925"
       y1="2599.3242"
       x1="-8535.5889"
       gradientTransform="matrix(0.4345,-0.9318,-0.9318,-0.4345,6223.4761,-5052.7427)"
       gradientUnits="userSpaceOnUse"
       id="linearGradient2146"
       xlink:href="#SVGID_9_" />
    <linearGradient
       y2="2600.5515"
       x2="-7209.6543"
       y1="2600.5515"
       x1="-7584.0386"
       gradientTransform="matrix(0.4345,-0.9318,-0.9318,-0.4345,6223.4761,-5052.7427)"
       gradientUnits="userSpaceOnUse"
       id="linearGradient2148"
       xlink:href="#SVGID_10_" />
  </defs>
  <metadata
     id="metadata4403">
    <rdf:RDF>
      <cc:Work
         rdf:about="">
        <dc:format>image/svg+xml</dc:format>
        <dc:type
           rdf:resource="http://purl.org/dc/dcmitype/StillImage" />
        <dc:title></dc:title>
      </cc:Work>
    </rdf:RDF>
  </metadata>
  <g
     id="layer1"
     transform="matrix(0.46881528,0,0,0.46881528,11.931738,-218.82944)">
    <g
       id="g3169"
       transform="matrix(0.22594137,0,0,0.22594137,72.15641,466.78864)">
      <linearGradient
         id="linearGradient4274"
         gradientUnits="userSpaceOnUse"
         x1="-6873.6479"
         y1="2774.2998"
         x2="-6636.2373"
         y2="2496.6895"
         gradientTransform="matrix(0.4345,-0.9318,-0.9318,-0.4345,6223.4761,-5052.7427)">
        <stop
           offset="0"
           style="stop-color:#F59723"
           id="stop4276" />
        <stop
           offset="0.3123"
           style="stop-color:#F69822"
           id="stop4278" />
        <stop
           offset="0.8383"
           style="stop-color:#E87726"
           id="stop4280" />
      </linearGradient>
      <path
         d="m 736.1,8.1 c -27.1,16 -72.2,61.3 -125.8,127 l 49.3,93.2 C 694.3,178.8 729.5,134.1 765,96 c 2.8,-3 4.1,-4.4 4.1,-4.4 -1.3,1.4 -2.8,3 -4.1,4.4 -11.5,12.6 -46.4,53.4 -99,134.2 50.7,-2.5 128.5,-12.9 192,-23.7 19,-105.9 -18.5,-154.3 -18.5,-154.3 0,0 -47.6,-77 -103.4,-44.1 z"
         id="path3178"
         style="fill:url(#linearGradient2110)" />
      <path
         d="m 652.5,539.9 c 0.3,-0.1 0.7,-0.1 1.1,-0.2 l -7.1,0.8 c -0.4,0.2 -0.8,0.4 -1.2,0.6 2.3,-0.5 4.8,-0.9 7.2,-1.2 z"
         id="path3180"
         style="fill:none" />
      <path
         d="m 602,706.9 c -4,0.9 -8.1,1.6 -12.3,2.3 4.2,-0.7 8.3,-1.5 12.3,-2.3 z"
         id="path3182"
         style="fill:none" />
      <path
         d="m 259.4,1081.4 c 0.5,-1.3 1,-2.8 1.5,-4.1 10.9,-28.7 21.7,-56.6 32.3,-83.8 11.9,-30.5 23.7,-60 35.5,-88.6 12.3,-30.1 24.5,-59.3 36.4,-87.5 12.5,-29.5 24.9,-58 37.1,-85.4 9.9,-22.3 19.6,-43.9 29.2,-64.8 3.2,-7 6.4,-13.9 9.6,-20.7 6.3,-13.6 12.5,-26.8 18.7,-39.8 5.7,-11.9 11.3,-23.6 17,-35.2 1.9,-3.8 3.7,-7.6 5.6,-11.4 0.3,-0.6 0.6,-1.2 0.9,-1.9 l -6.1,0.6 -4.8,-9.5 c -0.5,0.9 -0.9,1.9 -1.4,2.8 -8.6,17.3 -17.3,34.6 -25.8,52.1 -4.9,10.2 -9.8,20.4 -14.7,30.5 -13.5,28.3 -26.7,57 -39.8,85.6 -13.2,29.1 -26.1,58.3 -38.9,87.6 -12.4,28.8 -24.7,57.6 -36.6,86.3 -11.9,28.7 -23.6,57.3 -35,85.6 -11.9,29.6 -23.4,59 -34.6,88 -2.6,6.6 -5,13.1 -7.6,19.6 -9,23.4 -17.8,46.6 -26.3,69.4 l 7.6,15 6.8,-0.7 c 0.2,-0.7 0.5,-1.3 0.7,-2.1 11.1,-29.8 22,-59.1 32.7,-87.6 z"
         id="path3184"
         style="fill:none" />
      <path
         d="M 586.6,709.6 Z"
         id="path3186"
         style="fill:none" />
      <path
         d="m 570.2,791 c -6.3,1.1 -12.7,2.3 -19.4,3.4 0,0 -0.1,0 -0.1,0.1 3.4,-0.5 6.7,-1 10,-1.5 3.1,-0.7 6.3,-1.3 9.5,-2 z"
         id="path3188"
         style="fill:#bd202e" />
      <path
         enable-background="new    "
         d="m 570.2,791 c -6.3,1.1 -12.7,2.3 -19.4,3.4 0,0 -0.1,0 -0.1,0.1 3.4,-0.5 6.7,-1 10,-1.5 3.1,-0.7 6.3,-1.3 9.5,-2 z"
         id="path3190"
         style="opacity:0.35;fill:#bd202e" />
      <path
         d="m 586.7,709.5 c 0,0 0,0.1 0,0 -0.1,0 -0.1,0 -0.1,0.1 1,-0.1 2.1,-0.3 3.1,-0.5 4.2,-0.6 8.3,-1.3 12.3,-2.3 -5,0.9 -10,1.8 -15.3,2.7 z"
         id="path3192"
         style="fill:#bd202e" />
      <path
         enable-background="new    "
         d="m 586.7,709.5 c 0,0 0,0.1 0,0 -0.1,0 -0.1,0 -0.1,0.1 1,-0.1 2.1,-0.3 3.1,-0.5 4.2,-0.6 8.3,-1.3 12.3,-2.3 -5,0.9 -10,1.8 -15.3,2.7 z"
         id="path3194"
         style="opacity:0.35;fill:#bd202e" />
      <linearGradient
         id="linearGradient4291"
         gradientUnits="userSpaceOnUse"
         x1="-8630.7197"
         y1="2804.9607"
         x2="-6936.9253"
         y2="2804.9607"
         gradientTransform="matrix(0.4345,-0.9318,-0.9318,-0.4345,6223.4761,-5052.7427)">
        <stop
           offset="0.3233"
           style="stop-color:#9C2063"
           id="stop4293" />
        <stop
           offset="0.6302"
           style="stop-color:#C82037"
           id="stop4295" />
        <stop
           offset="0.7514"
           style="stop-color:#CC2135"
           id="stop4297" />
        <stop
           offset="1"
           style="stop-color:#E87726"
           id="stop4299" />
      </linearGradient>
      <path
         d="m 514,469.2 c 15,-28.1 30.2,-55.5 45.5,-82.1 15.9,-27.8 32.1,-54.6 48.4,-80.6 0.9,-1.5 2,-3.1 2.9,-4.6 16.1,-25.5 32.4,-50.1 48.7,-73.5 l -49.3,-93.2 c -3.7,4.5 -7.4,9.1 -11.2,13.9 -14.3,17.8 -29,36.8 -44.2,57.1 -17.1,22.8 -34.6,47.2 -52.5,72.8 -16.4,23.6 -33.2,48.3 -50,74 -14.3,21.8 -28.5,44.2 -42.7,67.2 -0.5,0.8 -1,1.7 -1.5,2.6 l 64.3,127 C 486,522.3 500,495.4 514,469.2 Z"
         id="path3205"
         style="fill:url(#linearGradient2112)" />
      <linearGradient
         id="linearGradient4302"
         gradientUnits="userSpaceOnUse"
         x1="-8426.2559"
         y1="2635.2839"
         x2="-7416.9194"
         y2="2635.2839"
         gradientTransform="matrix(0.4345,-0.9318,-0.9318,-0.4345,6223.4761,-5052.7427)">
        <stop
           offset="0"
           style="stop-color:#282661"
           id="stop4304" />
        <stop
           offset="9.548389e-02"
           style="stop-color:#662E8C"
           id="stop4306" />
        <stop
           offset="0.7882"
           style="stop-color:#9E2064"
           id="stop4308" />
        <stop
           offset="0.9487"
           style="stop-color:#CC2032"
           id="stop4310" />
      </linearGradient>
      <path
         d="m 221.2,1184.4 c -8.5,23.3 -17.1,47.2 -25.6,71.5 -0.1,0.3 -0.2,0.7 -0.4,1 -1.2,3.4 -2.5,6.9 -3.6,10.3 -5.8,16.4 -10.8,31.2 -22.3,64.7 18.9,8.6 34.1,31.4 48.5,57.2 -1.5,-26.7 -12.5,-51.8 -33.6,-71.2 93.3,4.2 173.7,-19.4 215.3,-87.6 3.7,-6.1 7.1,-12.4 10.2,-19.3 -18.9,24 -42.4,34.1 -86.5,31.7 -0.1,0 -0.2,0.1 -0.3,0.1 0.1,0 0.2,-0.1 0.3,-0.1 65,-29.1 97.5,-57 126.4,-103.2 6.8,-11 13.5,-22.9 20.3,-36.2 -56.8,58.3 -122.5,74.9 -191.8,62.3 l -52,5.7 c -1.7,4.4 -3.2,8.7 -4.9,13.1 z"
         id="path3216"
         style="fill:url(#linearGradient2114)" />
      <linearGradient
         id="linearGradient4313"
         gradientUnits="userSpaceOnUse"
         x1="-8535.5879"
         y1="2820.8604"
         x2="-6841.793"
         y2="2820.8604"
         gradientTransform="matrix(0.4345,-0.9318,-0.9318,-0.4345,6223.4761,-5052.7427)">
        <stop
           offset="0.3233"
           style="stop-color:#9C2063"
           id="stop4315" />
        <stop
           offset="0.6302"
           style="stop-color:#C82037"
           id="stop4317" />
        <stop
           offset="0.7514"
           style="stop-color:#CC2135"
           id="stop4319" />
        <stop
           offset="1"
           style="stop-color:#E87726"
           id="stop4321" />
      </linearGradient>
      <path
         d="m 245.5,1068.1 c 11.2,-29 22.8,-58.4 34.6,-88 11.4,-28.4 23,-57 35,-85.6 12,-28.6 24.2,-57.5 36.6,-86.3 12.6,-29.3 25.6,-58.5 38.9,-87.6 13.1,-28.8 26.3,-57.4 39.8,-85.6 4.8,-10.2 9.8,-20.4 14.7,-30.5 8.5,-17.5 17.1,-34.9 25.8,-52.1 0.5,-0.9 0.9,-1.9 1.4,-2.8 L 408,422.6 c -1,1.7 -2.1,3.5 -3.2,5.1 -15,24.5 -29.9,49.5 -44.5,75 -14.8,25.8 -29.3,52.1 -43.5,78.8 -11.9,22.5 -23.6,45.1 -35.1,68.1 -2.3,4.6 -4.5,9.3 -6.8,13.9 -14,28.9 -26.6,56.6 -38.1,83.5 -13,30.3 -24.4,59.3 -34.3,86.8 -6.6,18.1 -12.5,35.5 -18,52.3 -4.5,14.3 -8.7,28.7 -12.9,43 -9.6,33.6 -17.9,67.2 -24.7,100.6 l 64.6,127.5 c 8.5,-22.8 17.3,-46 26.3,-69.4 2.7,-6.7 5.1,-13.3 7.7,-19.7 z"
         id="path3227"
         style="fill:url(#linearGradient2116)" />
      <linearGradient
         id="linearGradient4324"
         gradientUnits="userSpaceOnUse"
         x1="-8412.0576"
         y1="2797.8789"
         x2="-7521.9175"
         y2="2797.8789"
         gradientTransform="matrix(0.4345,-0.9318,-0.9318,-0.4345,6223.4761,-5052.7427)">
        <stop
           offset="0"
           style="stop-color:#282661"
           id="stop4326" />
        <stop
           offset="9.548389e-02"
           style="stop-color:#662E8C"
           id="stop4328" />
        <stop
           offset="0.7882"
           style="stop-color:#9E2064"
           id="stop4330" />
        <stop
           offset="0.9487"
           style="stop-color:#CC2032"
           id="stop4332" />
      </linearGradient>
      <path
         d="m 146.2,1034 c -8.1,40.8 -13.9,81.4 -16.8,121.8 -0.1,1.4 -0.2,2.8 -0.3,4.2 -20.2,-32.3 -74.1,-63.8 -74,-63.5 38.7,56 68,111.6 72.3,166.2 -20.7,4.2 -49,-1.9 -81.7,-13.9 34.1,31.4 59.7,40 69.8,42.4 -31.4,2 -64,23.5 -96.9,48.3 48.1,-19.6 87,-27.4 114.8,-21.1 -44.2,125 -88.4,263 -132.7,409.6 13.6,-4 21.7,-13.2 26.2,-25.5 7.9,-26.5 60.2,-200.7 142.3,-429.4 2.4,-6.5 4.7,-13.1 7.1,-19.6 0.6,-1.9 1.3,-3.7 2,-5.4 8.6,-24 17.7,-48.5 26.9,-73.5 2.1,-5.7 4.2,-11.4 6.4,-17.1 0,-0.1 0.1,-0.2 0.1,-0.3 L 147,1029.7 c -0.2,1.3 -0.5,2.8 -0.8,4.3 z"
         id="path3238"
         style="fill:url(#linearGradient2118)" />
      <linearGradient
         id="linearGradient4335"
         gradientUnits="userSpaceOnUse"
         x1="-8535.5879"
         y1="2645.4897"
         x2="-6841.793"
         y2="2645.4897"
         gradientTransform="matrix(0.4345,-0.9318,-0.9318,-0.4345,6223.4761,-5052.7427)">
        <stop
           offset="0.3233"
           style="stop-color:#9C2063"
           id="stop4337" />
        <stop
           offset="0.6302"
           style="stop-color:#C82037"
           id="stop4339" />
        <stop
           offset="0.7514"
           style="stop-color:#CC2135"
           id="stop4341" />
        <stop
           offset="1"
           style="stop-color:#E87726"
           id="stop4343" />
      </linearGradient>
      <path
         d="m 482.3,560.2 c -1.9,3.8 -3.7,7.6 -5.6,11.4 -5.6,11.5 -11.2,23.2 -17,35.2 -6.2,13 -12.4,26.2 -18.7,39.8 -3.2,6.8 -6.4,13.7 -9.6,20.7 -9.6,20.9 -19.3,42.5 -29.2,64.8 -12.1,27.3 -24.6,55.8 -37.1,85.4 -11.9,28.2 -24.2,57.3 -36.4,87.5 -11.7,28.6 -23.5,58.2 -35.5,88.6 -10.7,27.1 -21.5,55.1 -32.3,83.8 -0.5,1.3 -1,2.8 -1.5,4.1 -10.8,28.5 -21.7,57.8 -32.6,87.8 -0.2,0.7 -0.5,1.3 -0.7,2.1 l 52,-5.7 c -1,-0.2 -2.1,-0.3 -3.1,-0.5 62.1,-7.7 144.8,-54.2 198.1,-111.5 24.6,-26.4 46.9,-57.6 67.5,-94.1 15.3,-27.1 29.8,-57.3 43.6,-90.6 12,-29.1 23.5,-60.7 34.6,-94.8 -14.3,7.5 -30.6,13.1 -48.6,16.9 -3.2,0.7 -6.4,1.3 -9.7,1.9 -3.3,0.6 -6.6,1.1 -10,1.5 v 0 0 c 0,0 0.1,0 0.1,-0.1 58,-22.3 94.5,-65.3 121,-118 -15.2,10.4 -40,24 -69.7,30.5 -4,0.9 -8.1,1.6 -12.3,2.3 -1,0.1 -2.1,0.3 -3.1,0.5 v 0 0 h 0.1 c 0,0 0,0 0.1,0 v 0 c 20.2,-8.4 37.1,-17.9 51.8,-29 3.2,-2.4 6.3,-4.8 9.1,-7.4 4.5,-3.9 8.7,-8 12.9,-12.2 2.6,-2.8 5.1,-5.6 7.6,-8.5 5.8,-6.9 11.2,-14.3 16.2,-22.3 1.5,-2.5 3.1,-4.9 4.5,-7.5 2,-3.7 3.8,-7.4 5.6,-10.9 8.1,-16.2 14.6,-30.8 19.7,-43.5 2.6,-6.4 4.8,-12.2 6.8,-17.8 0.8,-2.2 1.5,-4.3 2.2,-6.4 2.1,-6.1 3.7,-11.5 5,-16.3 2,-7.2 3.2,-12.9 3.8,-17 v 0 0 c -2,1.5 -4.2,3.1 -6.8,4.6 -17.5,10.5 -47.5,19.9 -71.7,24.4 l 47.7,-5.2 -47.7,5.2 c -0.3,0.1 -0.7,0.1 -1.1,0.2 -2.5,0.4 -4.8,0.8 -7.3,1.1 0.4,-0.2 0.8,-0.4 1.2,-0.6 l -163.3,17.9 c 0,0.4 -0.3,1.1 -0.6,1.7 z"
         id="path3249"
         style="fill:url(#linearGradient2120)" />
      <linearGradient
         id="linearGradient4346"
         gradientUnits="userSpaceOnUse"
         x1="-8640.6592"
         y1="2654.2649"
         x2="-6946.8647"
         y2="2654.2649"
         gradientTransform="matrix(0.4345,-0.9318,-0.9318,-0.4345,6223.4761,-5052.7427)">
        <stop
           offset="0.3233"
           style="stop-color:#9C2063"
           id="stop4348" />
        <stop
           offset="0.6302"
           style="stop-color:#C82037"
           id="stop4350" />
        <stop
           offset="0.7514"
           style="stop-color:#CC2135"
           id="stop4352" />
        <stop
           offset="1"
           style="stop-color:#E87726"
           id="stop4354" />
      </linearGradient>
      <path
         d="m 666.1,230.2 c -14.5,22.3 -30.3,47.6 -47.5,76.3 -0.9,1.4 -1.9,3.1 -2.7,4.5 -14.7,24.8 -30.3,52 -46.9,81.9 -14.2,25.8 -29,53.4 -44.4,83.1 -13.4,25.9 -27.2,53.4 -41.5,82.5 l 163.3,-17.9 c 47.6,-21.9 68.8,-41.6 89.4,-70.3 5.4,-7.9 11,-16.1 16.4,-24.7 16.8,-26.2 33.2,-55 47.9,-83.7 14.2,-27.7 26.7,-55.1 36.3,-79.9 6.1,-15.7 11,-30.3 14.4,-43.2 3,-11.3 5.3,-22.1 7.1,-32.4 -63.3,10.9 -141.2,21.3 -191.8,23.8 z"
         id="path3260"
         style="fill:url(#linearGradient2122)" />
      <path
         d="m 560.5,792.8 c -3.3,0.6 -6.6,1.1 -10,1.5 v 0 c 3.4,-0.3 6.8,-0.9 10,-1.5 z"
         id="path3262"
         style="fill:#bd202e" />
      <path
         enable-background="new    "
         d="m 560.5,792.8 c -3.3,0.6 -6.6,1.1 -10,1.5 v 0 c 3.4,-0.3 6.8,-0.9 10,-1.5 z"
         id="path3264"
         style="opacity:0.35;fill:#bd202e" />
      <linearGradient
         id="linearGradient4359"
         gradientUnits="userSpaceOnUse"
         x1="-8535.5889"
         y1="2593.446"
         x2="-6841.7925"
         y2="2593.446"
         gradientTransform="matrix(0.4345,-0.9318,-0.9318,-0.4345,6223.4761,-5052.7427)">
        <stop
           offset="0.3233"
           style="stop-color:#9C2063"
           id="stop4361" />
        <stop
           offset="0.6302"
           style="stop-color:#C82037"
           id="stop4363" />
        <stop
           offset="0.7514"
           style="stop-color:#CC2135"
           id="stop4365" />
        <stop
           offset="1"
           style="stop-color:#E87726"
           id="stop4367" />
      </linearGradient>
      <path
         d="m 560.5,792.8 c -3.3,0.6 -6.6,1.1 -10,1.5 v 0 c 3.4,-0.3 6.8,-0.9 10,-1.5 z"
         id="path3275"
         style="fill:url(#linearGradient2124)" />
      <path
         d="m 586.6,709.6 c 1,-0.1 2.1,-0.3 3.1,-0.5 -1,0.1 -2,0.4 -3.1,0.5 z"
         id="path3277"
         style="fill:#bd202e" />
      <path
         enable-background="new    "
         d="m 586.6,709.6 c 1,-0.1 2.1,-0.3 3.1,-0.5 -1,0.1 -2,0.4 -3.1,0.5 z"
         id="path3279"
         style="opacity:0.35;fill:#bd202e" />
      <linearGradient
         id="linearGradient4372"
         gradientUnits="userSpaceOnUse"
         x1="-8535.5889"
         y1="2599.3242"
         x2="-6841.7925"
         y2="2599.3242"
         gradientTransform="matrix(0.4345,-0.9318,-0.9318,-0.4345,6223.4761,-5052.7427)">
        <stop
           offset="0.3233"
           style="stop-color:#9C2063"
           id="stop4374" />
        <stop
           offset="0.6302"
           style="stop-color:#C82037"
           id="stop4376" />
        <stop
           offset="0.7514"
           style="stop-color:#CC2135"
           id="stop4378" />
        <stop
           offset="1"
           style="stop-color:#E87726"
           id="stop4380" />
      </linearGradient>
      <path
         d="m 586.6,709.6 c 1,-0.1 2.1,-0.3 3.1,-0.5 -1,0.1 -2,0.4 -3.1,0.5 z"
         id="path3290"
         style="fill:url(#linearGradient2126)" />
      <path
         d="m 586.6,709.6 c 0.1,0 0.1,-0.1 0,0 v 0 0 0 c 0.1,-0.1 0.1,0 0,0 z"
         id="path3292"
         style="fill:#bd202e" />
      <path
         enable-background="new    "
         d="m 586.6,709.6 c 0.1,0 0.1,-0.1 0,0 v 0 0 0 c 0.1,-0.1 0.1,0 0,0 z"
         id="path3294"
         style="opacity:0.35;fill:#bd202e" />
      <linearGradient
         id="linearGradient4385"
         gradientUnits="userSpaceOnUse"
         x1="-7584.0386"
         y1="2600.5515"
         x2="-7209.6543"
         y2="2600.5515"
         gradientTransform="matrix(0.4345,-0.9318,-0.9318,-0.4345,6223.4761,-5052.7427)">
        <stop
           offset="0.3233"
           style="stop-color:#9C2063"
           id="stop4387" />
        <stop
           offset="0.6302"
           style="stop-color:#C82037"
           id="stop4389" />
        <stop
           offset="0.7514"
           style="stop-color:#CC2135"
           id="stop4391" />
        <stop
           offset="1"
           style="stop-color:#E87726"
           id="stop4393" />
      </linearGradient>
      <path
         d="m 586.6,709.6 c 0.1,0 0.1,-0.1 0,0 v 0 0 0 c 0.1,-0.1 0.1,0 0,0 z"
         id="path3305"
         style="fill:url(#linearGradient2128)" />
    </g>
  </g>
  <g
     transform="matrix(0.46881528,0,0,0.46881528,11.931738,-218.82944)"
     id="g2108">
    <g
       transform="matrix(0.22594137,0,0,0.22594137,72.15641,466.78864)"
       id="g2068">
      <linearGradient
         gradientTransform="matrix(0.4345,-0.9318,-0.9318,-0.4345,6223.4761,-5052.7427)"
         y2="2496.6895"
         x2="-6636.2373"
         y1="2774.2998"
         x1="-6873.6479"
         gradientUnits="userSpaceOnUse"
         id="linearGradient1928">
        <stop
           id="stop1922"
           style="stop-color:#F59723"
           offset="0" />
        <stop
           id="stop1924"
           style="stop-color:#F69822"
           offset="0.3123" />
        <stop
           id="stop1926"
           style="stop-color:#E87726"
           offset="0.8383" />
      </linearGradient>
      <path
         style="fill:url(#linearGradient2130)"
         id="path1930"
         d="m 736.1,8.1 c -27.1,16 -72.2,61.3 -125.8,127 l 49.3,93.2 C 694.3,178.8 729.5,134.1 765,96 c 2.8,-3 4.1,-4.4 4.1,-4.4 -1.3,1.4 -2.8,3 -4.1,4.4 -11.5,12.6 -46.4,53.4 -99,134.2 50.7,-2.5 128.5,-12.9 192,-23.7 19,-105.9 -18.5,-154.3 -18.5,-154.3 0,0 -47.6,-77 -103.4,-44.1 z" />
      <path
         style="fill:none"
         id="path1932"
         d="m 652.5,539.9 c 0.3,-0.1 0.7,-0.1 1.1,-0.2 l -7.1,0.8 c -0.4,0.2 -0.8,0.4 -1.2,0.6 2.3,-0.5 4.8,-0.9 7.2,-1.2 z" />
      <path
         style="fill:none"
         id="path1934"
         d="m 602,706.9 c -4,0.9 -8.1,1.6 -12.3,2.3 4.2,-0.7 8.3,-1.5 12.3,-2.3 z" />
      <path
         style="fill:none"
         id="path1936"
         d="m 259.4,1081.4 c 0.5,-1.3 1,-2.8 1.5,-4.1 10.9,-28.7 21.7,-56.6 32.3,-83.8 11.9,-30.5 23.7,-60 35.5,-88.6 12.3,-30.1 24.5,-59.3 36.4,-87.5 12.5,-29.5 24.9,-58 37.1,-85.4 9.9,-22.3 19.6,-43.9 29.2,-64.8 3.2,-7 6.4,-13.9 9.6,-20.7 6.3,-13.6 12.5,-26.8 18.7,-39.8 5.7,-11.9 11.3,-23.6 17,-35.2 1.9,-3.8 3.7,-7.6 5.6,-11.4 0.3,-0.6 0.6,-1.2 0.9,-1.9 l -6.1,0.6 -4.8,-9.5 c -0.5,0.9 -0.9,1.9 -1.4,2.8 -8.6,17.3 -17.3,34.6 -25.8,52.1 -4.9,10.2 -9.8,20.4 -14.7,30.5 -13.5,28.3 -26.7,57 -39.8,85.6 -13.2,29.1 -26.1,58.3 -38.9,87.6 -12.4,28.8 -24.7,57.6 -36.6,86.3 -11.9,28.7 -23.6,57.3 -35,85.6 -11.9,29.6 -23.4,59 -34.6,88 -2.6,6.6 -5,13.1 -7.6,19.6 -9,23.4 -17.8,46.6 -26.3,69.4 l 7.6,15 6.8,-0.7 c 0.2,-0.7 0.5,-1.3 0.7,-2.1 11.1,-29.8 22,-59.1 32.7,-87.6 z" />
      <path
         style="fill:none"
         id="path1938"
         d="M 586.6,709.6 Z" />
      <path
         style="fill:#bd202e"
         id="path1940"
         d="m 570.2,791 c -6.3,1.1 -12.7,2.3 -19.4,3.4 0,0 -0.1,0 -0.1,0.1 3.4,-0.5 6.7,-1 10,-1.5 3.1,-0.7 6.3,-1.3 9.5,-2 z" />
      <path
         style="opacity:0.35;fill:#bd202e"
         id="path1942"
         d="m 570.2,791 c -6.3,1.1 -12.7,2.3 -19.4,3.4 0,0 -0.1,0 -0.1,0.1 3.4,-0.5 6.7,-1 10,-1.5 3.1,-0.7 6.3,-1.3 9.5,-2 z"
         enable-background="new    " />
      <path
         style="fill:#bd202e"
         id="path1944"
         d="m 586.7,709.5 c 0,0 0,0.1 0,0 -0.1,0 -0.1,0 -0.1,0.1 1,-0.1 2.1,-0.3 3.1,-0.5 4.2,-0.6 8.3,-1.3 12.3,-2.3 -5,0.9 -10,1.8 -15.3,2.7 z" />
      <path
         style="opacity:0.35;fill:#bd202e"
         id="path1946"
         d="m 586.7,709.5 c 0,0 0,0.1 0,0 -0.1,0 -0.1,0 -0.1,0.1 1,-0.1 2.1,-0.3 3.1,-0.5 4.2,-0.6 8.3,-1.3 12.3,-2.3 -5,0.9 -10,1.8 -15.3,2.7 z"
         enable-background="new    " />
      <linearGradient
         gradientTransform="matrix(0.4345,-0.9318,-0.9318,-0.4345,6223.4761,-5052.7427)"
         y2="2804.9607"
         x2="-6936.9253"
         y1="2804.9607"
         x1="-8630.7197"
         gradientUnits="userSpaceOnUse"
         id="linearGradient1956">
        <stop
           id="stop1948"
           style="stop-color:#9C2063"
           offset="0.3233" />
        <stop
           id="stop1950"
           style="stop-color:#C82037"
           offset="0.6302" />
        <stop
           id="stop1952"
           style="stop-color:#CC2135"
           offset="0.7514" />
        <stop
           id="stop1954"
           style="stop-color:#E87726"
           offset="1" />
      </linearGradient>
      <path
         style="fill:url(#linearGradient2132)"
         id="path1958"
         d="m 514,469.2 c 15,-28.1 30.2,-55.5 45.5,-82.1 15.9,-27.8 32.1,-54.6 48.4,-80.6 0.9,-1.5 2,-3.1 2.9,-4.6 16.1,-25.5 32.4,-50.1 48.7,-73.5 l -49.3,-93.2 c -3.7,4.5 -7.4,9.1 -11.2,13.9 -14.3,17.8 -29,36.8 -44.2,57.1 -17.1,22.8 -34.6,47.2 -52.5,72.8 -16.4,23.6 -33.2,48.3 -50,74 -14.3,21.8 -28.5,44.2 -42.7,67.2 -0.5,0.8 -1,1.7 -1.5,2.6 l 64.3,127 C 486,522.3 500,495.4 514,469.2 Z" />
      <linearGradient
         gradientTransform="matrix(0.4345,-0.9318,-0.9318,-0.4345,6223.4761,-5052.7427)"
         y2="2635.2839"
         x2="-7416.9194"
         y1="2635.2839"
         x1="-8426.2559"
         gradientUnits="userSpaceOnUse"
         id="linearGradient1968">
        <stop
           id="stop1960"
           style="stop-color:#282661"
           offset="0" />
        <stop
           id="stop1962"
           style="stop-color:#662E8C"
           offset="9.548389e-02" />
        <stop
           id="stop1964"
           style="stop-color:#9E2064"
           offset="0.7882" />
        <stop
           id="stop1966"
           style="stop-color:#CC2032"
           offset="0.9487" />
      </linearGradient>
      <path
         style="fill:url(#linearGradient2134)"
         id="path1970"
         d="m 221.2,1184.4 c -8.5,23.3 -17.1,47.2 -25.6,71.5 -0.1,0.3 -0.2,0.7 -0.4,1 -1.2,3.4 -2.5,6.9 -3.6,10.3 -5.8,16.4 -10.8,31.2 -22.3,64.7 18.9,8.6 34.1,31.4 48.5,57.2 -1.5,-26.7 -12.5,-51.8 -33.6,-71.2 93.3,4.2 173.7,-19.4 215.3,-87.6 3.7,-6.1 7.1,-12.4 10.2,-19.3 -18.9,24 -42.4,34.1 -86.5,31.7 -0.1,0 -0.2,0.1 -0.3,0.1 0.1,0 0.2,-0.1 0.3,-0.1 65,-29.1 97.5,-57 126.4,-103.2 6.8,-11 13.5,-22.9 20.3,-36.2 -56.8,58.3 -122.5,74.9 -191.8,62.3 l -52,5.7 c -1.7,4.4 -3.2,8.7 -4.9,13.1 z" />
      <linearGradient
         gradientTransform="matrix(0.4345,-0.9318,-0.9318,-0.4345,6223.4761,-5052.7427)"
         y2="2820.8604"
         x2="-6841.793"
         y1="2820.8604"
         x1="-8535.5879"
         gradientUnits="userSpaceOnUse"
         id="linearGradient1980">
        <stop
           id="stop1972"
           style="stop-color:#9C2063"
           offset="0.3233" />
        <stop
           id="stop1974"
           style="stop-color:#C82037"
           offset="0.6302" />
        <stop
           id="stop1976"
           style="stop-color:#CC2135"
           offset="0.7514" />
        <stop
           id="stop1978"
           style="stop-color:#E87726"
           offset="1" />
      </linearGradient>
      <path
         style="fill:url(#linearGradient2136)"
         id="path1982"
         d="m 245.5,1068.1 c 11.2,-29 22.8,-58.4 34.6,-88 11.4,-28.4 23,-57 35,-85.6 12,-28.6 24.2,-57.5 36.6,-86.3 12.6,-29.3 25.6,-58.5 38.9,-87.6 13.1,-28.8 26.3,-57.4 39.8,-85.6 4.8,-10.2 9.8,-20.4 14.7,-30.5 8.5,-17.5 17.1,-34.9 25.8,-52.1 0.5,-0.9 0.9,-1.9 1.4,-2.8 L 408,422.6 c -1,1.7 -2.1,3.5 -3.2,5.1 -15,24.5 -29.9,49.5 -44.5,75 -14.8,25.8 -29.3,52.1 -43.5,78.8 -11.9,22.5 -23.6,45.1 -35.1,68.1 -2.3,4.6 -4.5,9.3 -6.8,13.9 -14,28.9 -26.6,56.6 -38.1,83.5 -13,30.3 -24.4,59.3 -34.3,86.8 -6.6,18.1 -12.5,35.5 -18,52.3 -4.5,14.3 -8.7,28.7 -12.9,43 -9.6,33.6 -17.9,67.2 -24.7,100.6 l 64.6,127.5 c 8.5,-22.8 17.3,-46 26.3,-69.4 2.7,-6.7 5.1,-13.3 7.7,-19.7 z" />
      <linearGradient
         gradientTransform="matrix(0.4345,-0.9318,-0.9318,-0.4345,6223.4761,-5052.7427)"
         y2="2797.8789"
         x2="-7521.9175"
         y1="2797.8789"
         x1="-8412.0576"
         gradientUnits="userSpaceOnUse"
         id="linearGradient1992">
        <stop
           id="stop1984"
           style="stop-color:#282661"
           offset="0" />
        <stop
           id="stop1986"
           style="stop-color:#662E8C"
           offset="9.548389e-02" />
        <stop
           id="stop1988"
           style="stop-color:#9E2064"
           offset="0.7882" />
        <stop
           id="stop1990"
           style="stop-color:#CC2032"
           offset="0.9487" />
      </linearGradient>
      <path
         style="fill:url(#linearGradient2138)"
         id="path1994"
         d="m 146.2,1034 c -8.1,40.8 -13.9,81.4 -16.8,121.8 -0.1,1.4 -0.2,2.8 -0.3,4.2 -20.2,-32.3 -74.1,-63.8 -74,-63.5 38.7,56 68,111.6 72.3,166.2 -20.7,4.2 -49,-1.9 -81.7,-13.9 34.1,31.4 59.7,40 69.8,42.4 -31.4,2 -64,23.5 -96.9,48.3 48.1,-19.6 87,-27.4 114.8,-21.1 -44.2,125 -88.4,263 -132.7,409.6 13.6,-4 21.7,-13.2 26.2,-25.5 7.9,-26.5 60.2,-200.7 142.3,-429.4 2.4,-6.5 4.7,-13.1 7.1,-19.6 0.6,-1.9 1.3,-3.7 2,-5.4 8.6,-24 17.7,-48.5 26.9,-73.5 2.1,-5.7 4.2,-11.4 6.4,-17.1 0,-0.1 0.1,-0.2 0.1,-0.3 L 147,1029.7 c -0.2,1.3 -0.5,2.8 -0.8,4.3 z" />
      <linearGradient
         gradientTransform="matrix(0.4345,-0.9318,-0.9318,-0.4345,6223.4761,-5052.7427)"
         y2="2645.4897"
         x2="-6841.793"
         y1="2645.4897"
         x1="-8535.5879"
         gradientUnits="userSpaceOnUse"
         id="linearGradient2004">
        <stop
           id="stop1996"
           style="stop-color:#9C2063"
           offset="0.3233" />
        <stop
           id="stop1998"
           style="stop-color:#C82037"
           offset="0.6302" />
        <stop
           id="stop2000"
           style="stop-color:#CC2135"
           offset="0.7514" />
        <stop
           id="stop2002"
           style="stop-color:#E87726"
           offset="1" />
      </linearGradient>
      <path
         style="fill:url(#linearGradient2140)"
         id="path2006"
         d="m 482.3,560.2 c -1.9,3.8 -3.7,7.6 -5.6,11.4 -5.6,11.5 -11.2,23.2 -17,35.2 -6.2,13 -12.4,26.2 -18.7,39.8 -3.2,6.8 -6.4,13.7 -9.6,20.7 -9.6,20.9 -19.3,42.5 -29.2,64.8 -12.1,27.3 -24.6,55.8 -37.1,85.4 -11.9,28.2 -24.2,57.3 -36.4,87.5 -11.7,28.6 -23.5,58.2 -35.5,88.6 -10.7,27.1 -21.5,55.1 -32.3,83.8 -0.5,1.3 -1,2.8 -1.5,4.1 -10.8,28.5 -21.7,57.8 -32.6,87.8 -0.2,0.7 -0.5,1.3 -0.7,2.1 l 52,-5.7 c -1,-0.2 -2.1,-0.3 -3.1,-0.5 62.1,-7.7 144.8,-54.2 198.1,-111.5 24.6,-26.4 46.9,-57.6 67.5,-94.1 15.3,-27.1 29.8,-57.3 43.6,-90.6 12,-29.1 23.5,-60.7 34.6,-94.8 -14.3,7.5 -30.6,13.1 -48.6,16.9 -3.2,0.7 -6.4,1.3 -9.7,1.9 -3.3,0.6 -6.6,1.1 -10,1.5 v 0 0 c 0,0 0.1,0 0.1,-0.1 58,-22.3 94.5,-65.3 121,-118 -15.2,10.4 -40,24 -69.7,30.5 -4,0.9 -8.1,1.6 -12.3,2.3 -1,0.1 -2.1,0.3 -3.1,0.5 v 0 0 h 0.1 c 0,0 0,0 0.1,0 v 0 c 20.2,-8.4 37.1,-17.9 51.8,-29 3.2,-2.4 6.3,-4.8 9.1,-7.4 4.5,-3.9 8.7,-8 12.9,-12.2 2.6,-2.8 5.1,-5.6 7.6,-8.5 5.8,-6.9 11.2,-14.3 16.2,-22.3 1.5,-2.5 3.1,-4.9 4.5,-7.5 2,-3.7 3.8,-7.4 5.6,-10.9 8.1,-16.2 14.6,-30.8 19.7,-43.5 2.6,-6.4 4.8,-12.2 6.8,-17.8 0.8,-2.2 1.5,-4.3 2.2,-6.4 2.1,-6.1 3.7,-11.5 5,-16.3 2,-7.2 3.2,-12.9 3.8,-17 v 0 0 c -2,1.5 -4.2,3.1 -6.8,4.6 -17.5,10.5 -47.5,19.9 -71.7,24.4 l 47.7,-5.2 -47.7,5.2 c -0.3,0.1 -0.7,0.1 -1.1,0.2 -2.5,0.4 -4.8,0.8 -7.3,1.1 0.4,-0.2 0.8,-0.4 1.2,-0.6 l -163.3,17.9 c 0,0.4 -0.3,1.1 -0.6,1.7 z" />
      <linearGradient
         gradientTransform="matrix(0.4345,-0.9318,-0.9318,-0.4345,6223.4761,-5052.7427)"
         y2="2654.2649"
         x2="-6946.8647"
         y1="2654.2649"
         x1="-8640.6592"
         gradientUnits="userSpaceOnUse"
         id="linearGradient2016">
        <stop
           id="stop2008"
           style="stop-color:#9C2063"
           offset="0.3233" />
        <stop
           id="stop2010"
           style="stop-color:#C82037"
           offset="0.6302" />
        <stop
           id="stop2012"
           style="stop-color:#CC2135"
           offset="0.7514" />
        <stop
           id="stop2014"
           style="stop-color:#E87726"
           offset="1" />
      </linearGradient>
      <path
         style="fill:url(#linearGradient2142)"
         id="path2018"
         d="m 666.1,230.2 c -14.5,22.3 -30.3,47.6 -47.5,76.3 -0.9,1.4 -1.9,3.1 -2.7,4.5 -14.7,24.8 -30.3,52 -46.9,81.9 -14.2,25.8 -29,53.4 -44.4,83.1 -13.4,25.9 -27.2,53.4 -41.5,82.5 l 163.3,-17.9 c 47.6,-21.9 68.8,-41.6 89.4,-70.3 5.4,-7.9 11,-16.1 16.4,-24.7 16.8,-26.2 33.2,-55 47.9,-83.7 14.2,-27.7 26.7,-55.1 36.3,-79.9 6.1,-15.7 11,-30.3 14.4,-43.2 3,-11.3 5.3,-22.1 7.1,-32.4 -63.3,10.9 -141.2,21.3 -191.8,23.8 z" />
      <path
         style="fill:#bd202e"
         id="path2020"
         d="m 560.5,792.8 c -3.3,0.6 -6.6,1.1 -10,1.5 v 0 c 3.4,-0.3 6.8,-0.9 10,-1.5 z" />
      <path
         style="opacity:0.35;fill:#bd202e"
         id="path2022"
         d="m 560.5,792.8 c -3.3,0.6 -6.6,1.1 -10,1.5 v 0 c 3.4,-0.3 6.8,-0.9 10,-1.5 z"
         enable-background="new    " />
      <linearGradient
         gradientTransform="matrix(0.4345,-0.9318,-0.9318,-0.4345,6223.4761,-5052.7427)"
         y2="2593.446"
         x2="-6841.7925"
         y1="2593.446"
         x1="-8535.5889"
         gradientUnits="userSpaceOnUse"
         id="linearGradient2032">
        <stop
           id="stop2024"
           style="stop-color:#9C2063"
           offset="0.3233" />
        <stop
           id="stop2026"
           style="stop-color:#C82037"
           offset="0.6302" />
        <stop
           id="stop2028"
           style="stop-color:#CC2135"
           offset="0.7514" />
        <stop
           id="stop2030"
           style="stop-color:#E87726"
           offset="1" />
      </linearGradient>
      <path
         style="fill:url(#linearGradient2144)"
         id="path2034"
         d="m 560.5,792.8 c -3.3,0.6 -6.6,1.1 -10,1.5 v 0 c 3.4,-0.3 6.8,-0.9 10,-1.5 z" />
      <path
         style="fill:#bd202e"
         id="path2036"
         d="m 586.6,709.6 c 1,-0.1 2.1,-0.3 3.1,-0.5 -1,0.1 -2,0.4 -3.1,0.5 z" />
      <path
         style="opacity:0.35;fill:#bd202e"
         id="path2038"
         d="m 586.6,709.6 c 1,-0.1 2.1,-0.3 3.1,-0.5 -1,0.1 -2,0.4 -3.1,0.5 z"
         enable-background="new    " />
      <linearGradient
         gradientTransform="matrix(0.4345,-0.9318,-0.9318,-0.4345,6223.4761,-5052.7427)"
         y2="2599.3242"
         x2="-6841.7925"
         y1="2599.3242"
         x1="-8535.5889"
         gradientUnits="userSpaceOnUse"
         id="linearGradient2048">
        <stop
           id="stop2040"
           style="stop-color:#9C2063"
           offset="0.3233" />
        <stop
           id="stop2042"
           style="stop-color:#C82037"
           offset="0.6302" />
        <stop
           id="stop2044"
           style="stop-color:#CC2135"
           offset="0.7514" />
        <stop
           id="stop2046"
           style="stop-color:#E87726"
           offset="1" />
      </linearGradient>
      <path
         style="fill:url(#linearGradient2146)"
         id="path2050"
         d="m 586.6,709.6 c 1,-0.1 2.1,-0.3 3.1,-0.5 -1,0.1 -2,0.4 -3.1,0.5 z" />
      <path
         style="fill:#bd202e"
         id="path2052"
         d="m 586.6,709.6 c 0.1,0 0.1,-0.1 0,0 v 0 0 0 c 0.1,-0.1 0.1,0 0,0 z" />
      <path
         style="opacity:0.35;fill:#bd202e"
         id="path2054"
         d="m 586.6,709.6 c 0.1,0 0.1,-0.1 0,0 v 0 0 0 c 0.1,-0.1 0.1,0 0,0 z"
         enable-background="new    " />
      <linearGradient
         gradientTransform="matrix(0.4345,-0.9318,-0.9318,-0.4345,6223.4761,-5052.7427)"
         y2="2600.5515"
         x2="-7209.6543"
         y1="2600.5515"
         x1="-7584.0386"
         gradientUnits="userSpaceOnUse"
         id="linearGradient2064">
        <stop
           id="stop2056"
           style="stop-color:#9C2063"
           offset="0.3233" />
        <stop
           id="stop2058"
           style="stop-color:#C82037"
           offset="0.6302" />
        <stop
           id="stop2060"
           style="stop-color:#CC2135"
           offset="0.7514" />
        <stop
           id="stop2062"
           style="stop-color:#E87726"
           offset="1" />
      </linearGradient>
      <path
         style="fill:url(#linearGradient2148)"
         id="path2066"
         d="m 586.6,709.6 c 0.1,0 0.1,-0.1 0,0 v 0 0 0 c 0.1,-0.1 0.1,0 0,0 z" />
    </g>
  </g>
</svg>
